{
  "accessors": [
    {
      "bufferView": 2,
      "componentType": 5126,
      "count": 630,
      "max": [
        4.106407165527344,
        1.4328490495681763,
        7.600465774536133
      ],
      "min": [
        -0.23205900192260742,
        -1.4328490495681763,
        3.401298999786377
      ],
      "type": "VEC3"
    },
    {
      "bufferView": 2,
      "byteOffset": 7560,
      "componentType": 5126,
      "count": 630,
      "max": [
        0.9988934993743896,
        1.0,
        0.8964998722076416
      ],
      "min": [
        -0.9065022468566895,
        -1.0,
        -0.9909592270851135
      ],
      "type": "VEC3"
    },
    {
      "bufferView": 1,
      "componentType": 5126,
      "count": 630,
      "max": [
        1.0,
        1.0
      ],
      "min": [
        0.0,
        0.0
      ],
      "type": "VEC2"
    },
    {
      "bufferView": 0,
      "componentType": 5125,
      "count": 2400,
      "type": "SCALAR"
    },
    {
      "bufferView": 2,
      "byteOffset": 15120,
      "componentType": 5126,
      "count": 119,
      "max": [
        2.3815600872039795,
        0.12134800106287003,
        6.192852020263672
      ],
      "min": [
        1.2445919513702393,
        -0.12134800106287003,
        5.150354862213135
      ],
      "type": "VEC3"
    },
    {
      "bufferView": 2,
      "byteOffset": 16548,
      "componentType": 5126,
      "count": 119,
      "max": [
        0.684887707233429,
        0.9961196184158325,
        0.7626065015792847
      ],
      "min": [
        -0.7031437754631042,
        -0.9961196184158325,
        -0.7459589838981628
      ],
      "type": "VEC3"
    },
    {
      "bufferView": 1,
      "byteOffset": 5040,
      "componentType": 5126,
      "count": 119,
      "max": [
        0.65625,
        0.5418990254402161
      ],
      "min": [
        0.34375,
        -0.0
      ],
      "type": "VEC2"
    },
    {
      "bufferView": 0,
      "byteOffset": 9600,
      "componentType": 5125,
      "count": 360,
      "type": "SCALAR"
    },
    {
      "bufferView": 2,
      "byteOffset": 17976,
      "componentType": 5126,
      "count": 785,
      "max": [
        4.21370792388916,
        1.5705480575561523,
        10.936880111694336
      ],
      "min": [
        -3.8239409923553467,
        -1.5705480575561523,
        3.291002035140991
      ],
      "type": "VEC3"
    },
    {
      "bufferView": 2,
      "byteOffset": 27396,
      "componentType": 5126,
      "count": 785,
      "max": [
        0.9911057353019714,
        1.0,
        0.998752772808075
      ],
      "min": [
        -0.999294638633728,
        -1.0,
        -0.9951093792915344
      ],
      "type": "VEC3"
    },
    {
      "bufferView": 1,
      "byteOffset": 5992,
      "componentType": 5126,
      "count": 785,
      "max": [
        0.65625,
        1.0
      ],
      "min": [
        0.34375,
        -0.0
      ],
      "type": "VEC2"
    },
    {
      "bufferView": 0,
      "byteOffset": 11040,
      "componentType": 5125,
      "count": 2040,
      "type": "SCALAR"
    },
    {
      "bufferView": 2,
      "byteOffset": 36816,
      "componentType": 5126,
      "count": 492,
      "max": [
        0.9199360013008118,
        0.9302769899368286,
        10.818373680114746
      ],
      "min": [
        -3.7106170654296875,
        -0.9302769899368286,
        6.381158828735352
      ],
      "type": "VEC3"
    },
    {
      "bufferView": 2,
      "byteOffset": 42720,
      "componentType": 5126,
      "count": 492,
      "max": [
        0.9992943406105042,
        1.0,
        0.9992951154708862
      ],
      "min": [
        -0.9992935061454773,
        -1.0,
        -0.998752772808075
      ],
      "type": "VEC3"
    },
    {
      "bufferView": 1,
      "byteOffset": 12272,
      "componentType": 5126,
      "count": 492,
      "max": [
        0.65625,
        1.0
      ],
      "min": [
        0.34375,
        -0.0
      ],
      "type": "VEC2"
    },
    {
      "bufferView": 0,
      "byteOffset": 19200,
      "componentType": 5125,
      "count": 1260,
      "type": "SCALAR"
    },
    {
      "bufferView": 2,
      "byteOffset": 48624,
      "componentType": 5126,
      "count": 101,
      "max": [
        0.8610770106315613,
        0.22513100504875183,
        8.208463668823242
      ],
      "min": [
        0.49798300862312317,
        -0.22513100504875183,
        7.867920875549316
      ],
      "type": "VEC3"
    },
    {
      "bufferView": 2,
      "byteOffset": 49836,
      "componentType": 5126,
      "count": 101,
      "max": [
        0.9987526535987854,
        1.0,
        0.9992947578430176
      ],
      "min": [
        -0.7373638153076172,
        -1.0,
        -0.6754958033561707
      ],
      "type": "VEC3"
    },
    {
      "bufferView": 1,
      "byteOffset": 16208,
      "componentType": 5126,
      "count": 101,
      "max": [
        0.65625,
        1.0
      ],
      "min": [
        0.34375,
        0.6875
      ],
      "type": "VEC2"
    },
    {
      "bufferView": 0,
      "byteOffset": 24240,
      "componentType": 5125,
      "count": 300,
      "type": "SCALAR"
    }
  ],
  "asset": {
    "extras": {
      "author": "DJHaski (https://sketchfab.com/djhaski)",
      "license": "CC-BY-4.0 (http://creativecommons.org/licenses/by/4.0/)",
      "source": "https://sketchfab.com/3d-models/lowpoly-flashlight-126dd3f65b9440f1ae551fbc23a22c3f",
      "title": "Lowpoly Flashlight"
    },
    "generator": "Sketchfab-13.42.0",
    "version": "2.0"
  },
  "bufferViews": [
    {
      "buffer": 0,
      "byteLength": 25440,
      "name": "floatBufferViews",
      "target": 34963
    },
    {
      "buffer": 0,
      "byteLength": 17016,
      "byteOffset": 25440,
      "byteStride": 8,
      "name": "floatBufferViews",
      "target": 34962
    },
    {
      "buffer": 0,
      "byteLength": 51048,
      "byteOffset": 42456,
      "byteStride": 12,
      "name": "floatBufferViews",
      "target": 34962
    }
  ],
  "buffers": [
    {
      "byteLength": 93504,
      "uri": "scene.bin"
    }
  ],
  "materials": [
    {
      "alphaMode": "BLEND",
      "doubleSided": true,
      "name": "lambert2SG",
      "pbrMetallicRoughness": {
        "baseColorFactor": [
          0.5034588076391888,
          0.5034588076391888,
          0.5034588076391888,
          0.10190858039826482
        ],
        "metallicFactor": 0.0
      }
    },
    {
      "doubleSided": true,
      "name": "lambert3SG",
      "pbrMetallicRoughness": {
        "baseColorFactor": [
          0.061563921154370045,
          0.061563921154370045,
          0.061563921154370045,
          1.0
        ],
        "metallicFactor": 0.0
      }
    },
    {
      "doubleSided": true,
      "name": "lambert4SG",
      "pbrMetallicRoughness": {
        "baseColorFactor": [
          0.01347695994452737,
          0.01088838362141444,
          0.01088838362141444,
          1.0
        ],
        "metallicFactor": 0.0
      }
    },
    {
      "doubleSided": true,
      "name": "lambert5SG",
      "pbrMetallicRoughness": {
        "baseColorFactor": [
          0.0539396492505402,
          0.0539396492505402,
          0.0539396492505402,
          1.0
        ],
        "metallicFactor": 0.0
      }
    },
    {
      "doubleSided": true,
      "name": "lambert6SG",
      "pbrMetallicRoughness": {
        "baseColorFactor": [
          0.13851885892054266,
          0.024432571122761537,
          0.024432571122761537,
          1.0
        ],
        "metallicFactor": 0.0
      }
    }
  ],
  "meshes": [
    {
      "name": "Object_0",
      "primitives": [
        {
          "attributes": {
            "NORMAL": 1,
            "POSITION": 0,
            "TEXCOORD_0": 2
          },
          "indices": 3,
          "material": 0,
          "mode": 4
        }
      ]
    },
    {
      "name": "Object_1",
      "primitives": [
        {
          "attributes": {
            "NORMAL": 5,
            "POSITION": 4,
            "TEXCOORD_0": 6
          },
          "indices": 7,
          "material": 1,
          "mode": 4
        }
      ]
    },
    {
      "name": "Object_2",
      "primitives": [
        {
          "attributes": {
            "NORMAL": 9,
            "POSITION": 8,
            "TEXCOORD_0": 10
          },
          "indices": 11,
          "material": 2,
          "mode": 4
        }
      ]
    },
    {
      "name": "Object_3",
      "primitives": [
        {
          "attributes": {
            "NORMAL": 13,
            "POSITION": 12,
            "TEXCOORD_0": 14
          },
          "indices": 15,
          "material": 3,
          "mode": 4
        }
      ]
    },
    {
      "name": "Object_4",
      "primitives": [
        {
          "attributes": {
            "NORMAL": 17,
            "POSITION": 16,
            "TEXCOORD_0": 18
          },
          "indices": 19,
          "material": 4,
          "mode": 4
        }
      ]
    }
  ],
  "nodes": [
    {
      "children": [
        1
      ],
      "matrix": [
        1.0,
        0.0,
        0.0,
        0.0,
        0.0,
        2.220446049250313e-16,
        -1.0,
        0.0,
        0.0,
        1.0,
        2.220446049250313e-16,
        0.0,
        0.0,
        0.0,
        0.0,
        1.0
      ],
      "name": "Sketchfab_model"
    },
    {
      "children": [
        2,
        3,
        4,
        5,
        6
      ],
      "name": "Flashlight.obj.cleaner.materialmerger.gles"
    },
    {
      "mesh": 0,
      "name": "Object_2"
    },
    {
      "mesh": 1,
      "name": "Object_3"
    },
    {
      "mesh": 2,
      "name": "Object_4"
    },
    {
      "mesh": 3,
      "name": "Object_5"
    },
    {
      "mesh": 4,
      "name": "Object_6"
    }
  ],
  "scene": 0,
  "scenes": [
    {
      "name": "Sketchfab_Scene",
      "nodes": [
        0
      ]
    }
  ]
}
